<svg width="22" height="22" viewBox="0 0 22 22" fill="none" xmlns="http://www.w3.org/2000/svg">
<g id="ph:currency-dollar-light">
<path id="Vector" d="M13.0625 10.4844H11.5156V4.64062H12.375C13.1497 4.64149 13.8924 4.94961 14.4401 5.49738C14.9879 6.04515 15.296 6.78784 15.2969 7.5625C15.2969 7.69925 15.3512 7.8304 15.4479 7.9271C15.5446 8.0238 15.6757 8.07812 15.8125 8.07812C15.9493 8.07812 16.0804 8.0238 16.1771 7.9271C16.2738 7.8304 16.3281 7.69925 16.3281 7.5625C16.3269 6.51443 15.9101 5.50962 15.169 4.76852C14.4279 4.02743 13.4231 3.61056 12.375 3.60938H11.5156V2.0625C11.5156 1.92575 11.4613 1.7946 11.3646 1.6979C11.2679 1.6012 11.1368 1.54688 11 1.54688C10.8632 1.54688 10.7321 1.6012 10.6354 1.6979C10.5387 1.7946 10.4844 1.92575 10.4844 2.0625V3.60938H9.28125C8.23282 3.60938 7.22732 4.02586 6.48597 4.76722C5.74461 5.50857 5.32812 6.51407 5.32812 7.5625C5.32812 8.61093 5.74461 9.61643 6.48597 10.3578C7.22732 11.0991 8.23282 11.5156 9.28125 11.5156H10.4844V17.3594H8.9375C8.16284 17.3585 7.42015 17.0504 6.87238 16.5026C6.32461 15.9549 6.01649 15.2122 6.01562 14.4375C6.01562 14.3007 5.9613 14.1696 5.8646 14.0729C5.7679 13.9762 5.63675 13.9219 5.5 13.9219C5.36325 13.9219 5.2321 13.9762 5.1354 14.0729C5.0387 14.1696 4.98438 14.3007 4.98438 14.4375C4.98556 15.4856 5.40243 16.4904 6.14352 17.2315C6.88462 17.9726 7.88943 18.3894 8.9375 18.3906H10.4844V19.9375C10.4844 20.0743 10.5387 20.2054 10.6354 20.3021C10.7321 20.3988 10.8632 20.4531 11 20.4531C11.1368 20.4531 11.2679 20.3988 11.3646 20.3021C11.4613 20.2054 11.5156 20.0743 11.5156 19.9375V18.3906H13.0625C14.1109 18.3906 15.1164 17.9741 15.8578 17.2328C16.5991 16.4914 17.0156 15.4859 17.0156 14.4375C17.0156 13.3891 16.5991 12.3836 15.8578 11.6422C15.1164 10.9009 14.1109 10.4844 13.0625 10.4844ZM9.28125 10.4844C8.50632 10.4844 7.76313 10.1765 7.21517 9.62858C6.66721 9.08062 6.35938 8.33743 6.35938 7.5625C6.35938 6.78757 6.66721 6.04438 7.21517 5.49642C7.76313 4.94846 8.50632 4.64062 9.28125 4.64062H10.4844V10.4844H9.28125ZM13.0625 17.3594H11.5156V11.5156H13.0625C13.8374 11.5156 14.5806 11.8235 15.1286 12.3714C15.6765 12.9194 15.9844 13.6626 15.9844 14.4375C15.9844 15.2124 15.6765 15.9556 15.1286 16.5036C14.5806 17.0515 13.8374 17.3594 13.0625 17.3594Z" fill="black"/>
</g>
</svg>
