<svg width="21" height="21" viewBox="0 0 21 21" fill="none" xmlns="http://www.w3.org/2000/svg">
<g id="ei:search">
<path id="Vector" d="M9.66002 16.7995C5.70556 16.7995 2.52002 13.614 2.52002 9.65953C2.52002 5.70507 5.70556 2.51953 9.66002 2.51953C13.6145 2.51953 16.8 5.70507 16.8 9.65953C16.8 13.614 13.6145 16.7995 9.66002 16.7995ZM9.66002 3.61799C6.30971 3.61799 3.61848 6.30922 3.61848 9.65953C3.61848 13.0098 6.30971 15.7011 9.66002 15.7011C13.0103 15.7011 15.7016 13.0098 15.7016 9.65953C15.7016 6.30922 13.0103 3.61799 9.66002 3.61799Z" fill="black"/>
<path id="Vector_2" d="M14.2413 13.4395L19.3214 18.5195L18.5215 19.3195L13.4414 14.2394L14.2413 13.4395Z" fill="black"/>
</g>
</svg>
