<svg width="22" height="22" viewBox="0 0 22 22" fill="none" xmlns="http://www.w3.org/2000/svg">
<g id="clarity:euro-line">
<path id="Vector" d="M19.2383 17.4105C19.1958 17.3422 19.1403 17.2829 19.075 17.2361C19.0096 17.1892 18.9356 17.1558 18.8572 17.1376C18.7789 17.1195 18.6977 17.1169 18.6184 17.1302C18.5391 17.1435 18.4631 17.1723 18.395 17.2149C17.4644 17.7943 16.4157 18.1577 15.3262 18.2783C14.2367 18.399 13.1339 18.2738 12.0991 17.9121C11.0644 17.5503 10.1238 16.9612 9.34674 16.188C8.56966 15.4149 7.9758 14.4773 7.60884 13.4444H14.765C14.927 13.4444 15.0825 13.38 15.1971 13.2654C15.3117 13.1508 15.3761 12.9953 15.3761 12.8333C15.3761 12.6712 15.3117 12.5157 15.1971 12.4011C15.0825 12.2865 14.927 12.2221 14.765 12.2221H7.29107C7.14385 11.414 7.14385 10.5859 7.29107 9.7777H14.765C14.927 9.7777 15.0825 9.71332 15.1971 9.59871C15.3117 9.48411 15.3761 9.32867 15.3761 9.16659C15.3761 9.00451 15.3117 8.84908 15.1971 8.73447C15.0825 8.61987 14.927 8.55548 14.765 8.55548H7.60884C7.97464 7.52454 8.56645 6.5885 9.34091 5.81593C10.1154 5.04336 11.0529 4.45384 12.0847 4.09056C13.1165 3.72728 14.2165 3.59945 15.3042 3.71642C16.3918 3.83339 17.4395 4.19221 18.3705 4.76659C18.5083 4.85249 18.6745 4.88015 18.8327 4.84347C18.9908 4.8068 19.1279 4.7088 19.2138 4.57104C19.2997 4.43327 19.3274 4.26702 19.2907 4.10887C19.2541 3.95071 19.1561 3.8136 19.0183 3.7277C17.901 3.03653 16.6396 2.61195 15.3318 2.48686C14.024 2.36178 12.705 2.53956 11.4769 3.00642C10.2489 3.47328 9.14491 4.21668 8.2505 5.17898C7.3561 6.14129 6.69532 7.29664 6.3194 8.55548H2.16385C2.00177 8.55548 1.84633 8.61987 1.73172 8.73447C1.61712 8.84908 1.55273 9.00451 1.55273 9.16659C1.55273 9.32867 1.61712 9.48411 1.73172 9.59871C1.84633 9.71332 2.00177 9.7777 2.16385 9.7777H6.05662C5.99484 10.1822 5.96216 10.5907 5.95885 10.9999C5.96216 11.4091 5.99484 11.8176 6.05662 12.2221H2.16385C2.00177 12.2221 1.84633 12.2865 1.73172 12.4011C1.61712 12.5157 1.55273 12.6712 1.55273 12.8333C1.55273 12.9953 1.61712 13.1508 1.73172 13.2654C1.84633 13.38 2.00177 13.4444 2.16385 13.4444H6.3194C6.69611 14.7062 7.35901 15.864 8.25647 16.8277C9.15392 17.7913 10.2617 18.5348 11.4936 19.0002C12.7254 19.4656 14.0481 19.6404 15.3585 19.511C16.669 19.3815 17.9319 18.9513 19.0488 18.2538C19.1167 18.2109 19.1754 18.155 19.2216 18.0894C19.2678 18.0238 19.3007 17.9497 19.3183 17.8714C19.3358 17.7931 19.3378 17.7121 19.3241 17.633C19.3104 17.5539 19.2812 17.4783 19.2383 17.4105Z" fill="black"/>
</g>
</svg>
