<svg width="22" height="23" viewBox="0 0 22 23" fill="none" xmlns="http://www.w3.org/2000/svg">
<g id="bx:bxl-facebook-square">
<path id="Vector" d="M18.3333 3.10059H3.66667C3.42355 3.10059 3.19039 3.19955 3.01849 3.3757C2.84658 3.55185 2.75 3.79076 2.75 4.03988V19.0685C2.75 19.3176 2.84658 19.5565 3.01849 19.7327C3.19039 19.9089 3.42355 20.0078 3.66667 20.0078H11.5638V13.4704H9.42058V10.9108H11.5638V9.0322C11.5638 6.84835 12.8654 5.65827 14.7721 5.65827C15.4128 5.65639 16.0545 5.69021 16.6925 5.75878V8.03186H15.3771C14.3431 8.03186 14.1414 8.5372 14.1414 9.27642V10.9061H16.6137L16.2928 13.4657H14.1405V20.0078H18.3333C18.5764 20.0078 18.8096 19.9089 18.9815 19.7327C19.1534 19.5565 19.25 19.3176 19.25 19.0685V4.03988C19.25 3.79076 19.1534 3.55185 18.9815 3.3757C18.8096 3.19955 18.5764 3.10059 18.3333 3.10059Z" fill="#DA1F39"/>
</g>
</svg>
