<svg width="22" height="22" viewBox="0 0 22 22" fill="none" xmlns="http://www.w3.org/2000/svg">
<g id="noun_Hryvnia_248776 1">
<g id="Group">
<path id="Vector" d="M17.4638 12.0933H8.71716C9.34186 11.8094 10.0187 11.5958 10.7175 11.3779C11.9819 10.984 13.2831 10.5757 14.3415 9.686H17.4638C17.7169 9.686 17.9221 9.48083 17.9221 9.22767C17.9221 8.97451 17.7169 8.76934 17.4638 8.76934H15.1651C15.7078 7.91932 15.8418 6.87679 15.5134 5.81273C15.0278 4.23936 13.6392 2.92416 12.1364 2.61442C10.7411 2.32653 9.1855 2.64092 7.977 3.45482C6.91997 4.16667 6.2194 5.2015 6.00402 6.36917C5.95819 6.61803 6.12272 6.85723 6.37176 6.90306C6.62026 6.94746 6.85964 6.78454 6.90565 6.53532C7.07573 5.61221 7.63809 4.78828 8.48905 4.21537C9.49738 3.5361 10.7906 3.27184 11.9516 3.51247C13.1415 3.75739 14.2461 4.81478 14.6375 6.08307C14.8144 6.65599 14.9773 7.75492 14.0832 8.67874C14.0518 8.71124 14.0169 8.73809 13.9847 8.76934H4.53646C4.2833 8.76934 4.07812 8.97451 4.07812 9.22767C4.07812 9.48083 4.2833 9.686 4.53646 9.686H12.6537C11.9731 10.0218 11.2225 10.2603 10.4448 10.5028C9.23024 10.8815 7.98018 11.2736 6.94047 12.0933H4.53646C4.2833 12.0933 4.07812 12.2985 4.07812 12.5517C4.07812 12.8048 4.2833 13.01 4.53646 13.01H6.07452C5.34521 14.1398 5.32511 15.7014 6.0853 17.0505C7.06911 18.7961 8.97961 19.4875 10.8129 19.4875C11.4503 19.4875 12.0784 19.4041 12.6549 19.2523C15.0697 18.616 16.5672 16.9248 16.5632 14.839C16.5629 14.5859 16.3577 14.3814 16.1049 14.3814C16.1045 14.3814 16.1042 14.3814 16.1042 14.3814C15.851 14.3818 15.6462 14.5877 15.6466 14.8405C15.6505 16.8124 13.983 17.9543 12.4214 18.3657C10.4556 18.8831 7.9224 18.4434 6.88381 16.6007C6.31519 15.5913 6.16641 14.0624 7.18369 13.0913C7.21415 13.0622 7.24752 13.038 7.2786 13.01H17.4638C17.7169 13.01 17.9221 12.8048 17.9221 12.5517C17.9221 12.2985 17.7169 12.0933 17.4638 12.0933Z" fill="#1D1C1A" stroke="black" stroke-width="0.7"/>
</g>
</g>
</svg>
