<svg width="22" height="23" viewBox="0 0 22 23" fill="none" xmlns="http://www.w3.org/2000/svg">
<g id="bx:bxl-instagram-alt">
<path id="Vector" d="M19.2012 7.80156C19.192 7.09017 19.062 6.38584 18.8172 5.7201C18.6048 5.15854 18.2805 4.64855 17.8649 4.22271C17.4493 3.79686 16.9516 3.46453 16.4036 3.24694C15.7622 3.00025 15.0847 2.86685 14.3997 2.85244C13.5179 2.81205 13.2383 2.80078 10.9998 2.80078C8.76132 2.80078 8.4744 2.80078 7.59899 2.85244C6.91438 2.86696 6.23714 3.00035 5.59607 3.24694C5.04796 3.46438 4.55017 3.79666 4.13457 4.22252C3.71896 4.64838 3.39469 5.15845 3.18249 5.7201C2.94125 6.37678 2.81135 7.0709 2.7984 7.77244C2.75899 8.67698 2.74707 8.96347 2.74707 11.2572C2.74707 13.551 2.74707 13.844 2.7984 14.742C2.81215 15.4446 2.9414 16.1378 3.18249 16.7962C3.39504 17.3577 3.71956 17.8675 4.1353 18.2932C4.55105 18.7189 5.04888 19.051 5.59699 19.2684C6.2363 19.525 6.91366 19.668 7.5999 19.6911C8.48265 19.7315 8.76224 19.7437 11.0007 19.7437C13.2392 19.7437 13.5262 19.7437 14.4016 19.6911C15.0865 19.6773 15.7641 19.5442 16.4054 19.2975C16.9533 19.0797 17.4509 18.7473 17.8664 18.3215C18.282 17.8957 18.6064 17.3858 18.819 16.8244C19.0601 16.1669 19.1893 15.4737 19.2031 14.7702C19.2425 13.8666 19.2544 13.5801 19.2544 11.2854C19.2526 8.99164 19.2526 8.70046 19.2012 7.80156ZM10.9943 15.5949C8.65315 15.5949 6.75657 13.6515 6.75657 11.2525C6.75657 8.85357 8.65315 6.91018 10.9943 6.91018C12.1182 6.91018 13.1961 7.36767 13.9909 8.18202C14.7856 8.99637 15.2321 10.1009 15.2321 11.2525C15.2321 12.4042 14.7856 13.5087 13.9909 14.323C13.1961 15.1374 12.1182 15.5949 10.9943 15.5949ZM15.4007 7.76211C15.2709 7.76224 15.1424 7.73613 15.0224 7.68529C14.9025 7.63445 14.7935 7.55987 14.7017 7.46582C14.6099 7.37177 14.5372 7.2601 14.4875 7.13719C14.4379 7.01429 14.4124 6.88256 14.4126 6.74956C14.4126 6.61665 14.4381 6.48504 14.4878 6.36225C14.5374 6.23946 14.6101 6.12789 14.7019 6.03391C14.7936 5.93992 14.9025 5.86537 15.0223 5.81451C15.1421 5.76365 15.2706 5.73747 15.4003 5.73747C15.53 5.73747 15.6584 5.76365 15.7783 5.81451C15.8981 5.86537 16.007 5.93992 16.0987 6.03391C16.1904 6.12789 16.2632 6.23946 16.3128 6.36225C16.3624 6.48504 16.388 6.61665 16.388 6.74956C16.388 7.30937 15.9462 7.76211 15.4007 7.76211Z" fill="#DA1F39"/>
<path id="Vector_2" d="M10.9949 14.073C12.5152 14.073 13.7477 12.8099 13.7477 11.2518C13.7477 9.69375 12.5152 8.43066 10.9949 8.43066C9.47464 8.43066 8.24219 9.69375 8.24219 11.2518C8.24219 12.8099 9.47464 14.073 10.9949 14.073Z" fill="#DA1F39"/>
</g>
</svg>
