<svg width="22" height="23" viewBox="0 0 22 23" fill="none" xmlns="http://www.w3.org/2000/svg">
<g id="fluent:mail-28-filled">
<g id="Group">
<path id="Vector" d="M2.35742 8.22595L10.7284 12.687C10.8124 12.7318 10.9056 12.7551 11.0003 12.7551C11.0949 12.7551 11.1882 12.7318 11.2721 12.687L19.6431 8.22675V15.9759C19.6432 16.6442 19.3936 17.2873 18.9457 17.7731C18.4977 18.2589 17.8853 18.5506 17.2341 18.5885L17.0896 18.5925H4.91099C4.25874 18.5925 3.6312 18.3368 3.1571 17.8778C2.683 17.4188 2.39828 16.7913 2.36135 16.124L2.35742 15.9759V8.22595ZM4.91099 4.10059H17.0896C17.7418 4.10054 18.3694 4.35625 18.8435 4.81526C19.3176 5.27426 19.6023 5.90176 19.6392 6.56904L19.6431 6.71718V6.86532L11.0003 11.4705L2.35742 6.86532V6.71718C2.35738 6.04883 2.60693 5.4058 3.05488 4.92C3.50283 4.4342 4.11522 4.14245 4.76642 4.10461L4.91099 4.10059H17.0896H4.91099Z" fill="#DA1F39"/>
</g>
</g>
</svg>
