<svg width="22" height="23" viewBox="0 0 22 23" fill="none" xmlns="http://www.w3.org/2000/svg">
<g id="entypo-social:pinterest-with-circle">
<path id="Vector" d="M10.9994 2.41699C6.22757 2.41699 2.35938 6.38066 2.35938 11.2702C2.35938 16.1598 6.22757 20.1235 10.9994 20.1235C15.7712 20.1235 19.6394 16.1598 19.6394 11.2702C19.6394 6.38066 15.7712 2.41699 10.9994 2.41699ZM11.5907 13.3683C11.0363 13.3249 10.8041 13.0436 10.3703 12.7744C10.1318 14.0572 9.84017 15.2874 8.97617 15.9302C8.70887 13.9898 9.36677 12.5346 9.67277 10.988C9.15167 10.0889 9.73488 8.28042 10.8347 8.72492C12.1874 9.27456 9.66287 12.0679 11.3576 12.4175C13.127 12.7808 13.8497 9.27087 12.7526 8.13102C11.1668 6.48303 8.13827 8.09321 8.51087 10.4522C8.60087 11.0286 9.18317 11.2038 8.74307 11.9997C7.72877 11.7691 7.42547 10.9493 7.46507 9.85648C7.52717 8.06739 9.03378 6.8141 10.544 6.64165C12.4547 6.424 14.2475 7.36005 14.4959 9.20263C14.774 11.2813 13.6328 13.5306 11.5907 13.3683Z" fill="#DA1F39"/>
</g>
</svg>
