<svg width="21" height="23" viewBox="0 0 21 23" fill="none" xmlns="http://www.w3.org/2000/svg">
<g id="cib:youtube">
<path id="Vector" d="M19.6015 6.19838C19.4912 5.79424 19.2809 5.42614 18.991 5.12971C18.7011 4.83329 18.3414 4.61859 17.9468 4.50641C16.4653 4.10061 10.51 4.10061 10.51 4.10061C10.51 4.10061 4.566 4.09087 3.06916 4.50641C2.67514 4.61909 2.31616 4.83401 2.0269 5.13041C1.73765 5.4268 1.5279 5.79464 1.41794 6.19838C1.13662 7.75238 0.998066 9.32998 1.00409 10.9105C1.00135 12.4834 1.13988 14.0532 1.41794 15.6001C1.52826 16.004 1.73807 16.3721 2.02722 16.6691C2.31638 16.966 2.67517 17.1818 3.06916 17.2957C4.55056 17.7015 10.51 17.7015 10.51 17.7015C10.51 17.7015 16.4505 17.7015 17.9468 17.2957C18.3414 17.1823 18.7009 16.9667 18.9907 16.6697C19.2805 16.3728 19.4908 16.0044 19.6015 15.6001C19.8741 14.0541 20.0071 12.482 19.9976 10.9105C20.0071 9.32862 19.877 7.75407 19.6015 6.19838ZM8.60766 13.8229V7.98527L13.5649 10.9105L8.60766 13.8229Z" fill="#DA1F39"/>
</g>
</svg>
